<?xml version="1.0" encoding="UTF-8" standalone="no"?>
<!DOCTYPE svg PUBLIC "-//W3C//DTD SVG 1.1//EN" "http://www.w3.org/Graphics/SVG/1.1/DTD/svg11.dtd">
<!-- Generated by graphviz version 2.43.0 (0)
 -->
<!-- Title: a_graph Pages: 1 -->
<svg width="1506pt" height="119pt" viewBox="0.00 0.00 1506.00 119.00" xmlns="http://www.w3.org/2000/svg" xmlns:xlink="http://www.w3.org/1999/xlink">
<g id="graph0" class="graph" transform="scale(1 1) rotate(0) translate(4 115)">
<title>a_graph</title>
<polygon fill="white" stroke="transparent" points="-4,4 -4,-115 1502,-115 1502,4 -4,4"/>
<!-- T187 -->
<g id="node1" class="node">
<title>T187</title>
<polygon fill="none" stroke="#0058ad" points="365.5,-81.5 365.5,-110.5 1056.5,-110.5 1056.5,-81.5 365.5,-81.5"/>
<text text-anchor="middle" x="400.5" y="-92.3" font-family="Times,serif" font-size="14.00" fill="#0058ad">a 88 47</text>
<polyline fill="none" stroke="#0058ad" points="435.5,-81.5 435.5,-110.5 "/>
<text text-anchor="middle" x="470.5" y="-92.3" font-family="Times,serif" font-size="14.00" fill="#0058ad">a 46 47</text>
<polyline fill="none" stroke="#0058ad" points="505.5,-81.5 505.5,-110.5 "/>
<text text-anchor="middle" x="540.5" y="-92.3" font-family="Times,serif" font-size="14.00" fill="#0058ad">a 56 47</text>
<polyline fill="none" stroke="#0058ad" points="575.5,-81.5 575.5,-110.5 "/>
<text text-anchor="middle" x="610.5" y="-92.3" font-family="Times,serif" font-size="14.00" fill="#0058ad">a 44 47</text>
<polyline fill="none" stroke="#0058ad" points="645.5,-81.5 645.5,-110.5 "/>
<text text-anchor="middle" x="680.5" y="-92.3" font-family="Times,serif" font-size="14.00" fill="#0058ad">a 32 47</text>
<polyline fill="none" stroke="#0058ad" points="715.5,-81.5 715.5,-110.5 "/>
<text text-anchor="middle" x="750.5" y="-92.3" font-family="Times,serif" font-size="14.00" fill="#0058ad">a 67 47</text>
<polyline fill="none" stroke="#0058ad" points="785.5,-81.5 785.5,-110.5 "/>
<text text-anchor="middle" x="820.5" y="-92.3" font-family="Times,serif" font-size="14.00" fill="#0058ad">a 21 47</text>
<polyline fill="none" stroke="#0058ad" points="855.5,-81.5 855.5,-110.5 "/>
<text text-anchor="middle" x="890.5" y="-92.3" font-family="Times,serif" font-size="14.00" fill="#0058ad">a 69 47</text>
<polyline fill="none" stroke="#0058ad" points="925.5,-81.5 925.5,-110.5 "/>
<text text-anchor="middle" x="960.5" y="-92.3" font-family="Times,serif" font-size="14.00" fill="#0058ad">a 17 47</text>
<polyline fill="none" stroke="#0058ad" points="995.5,-81.5 995.5,-110.5 "/>
<text text-anchor="middle" x="1026" y="-92.3" font-family="Times,serif" font-size="14.00" fill="#0058ad">a 3 47</text>
</g>
<!-- T189 -->
<g id="node2" class="node">
<title>T189</title>
<polygon fill="none" stroke="#0058ad" points="0,-0.5 0,-29.5 1498,-29.5 1498,-0.5 0,-0.5"/>
<text text-anchor="middle" x="62" y="-11.3" font-family="Times,serif" font-size="14.00" fill="#0058ad">r 97 [11 19 33]</text>
<polyline fill="none" stroke="#0058ad" points="124,-0.5 124,-29.5 "/>
<text text-anchor="middle" x="197" y="-11.3" font-family="Times,serif" font-size="14.00" fill="#0058ad">r 83 [11 13 30 35]</text>
<polyline fill="none" stroke="#0058ad" points="270,-0.5 270,-29.5 "/>
<text text-anchor="middle" x="390.5" y="-11.3" font-family="Times,serif" font-size="14.00" fill="#0058ad">r 69 [0 3 22 24 28 33 34 38 39]</text>
<polyline fill="none" stroke="#0058ad" points="511,-0.5 511,-29.5 "/>
<text text-anchor="middle" x="584" y="-11.3" font-family="Times,serif" font-size="14.00" fill="#0058ad">r 88 [28 36 44 47]</text>
<polyline fill="none" stroke="#0058ad" points="657,-0.5 657,-29.5 "/>
<text text-anchor="middle" x="743.5" y="-11.3" font-family="Times,serif" font-size="14.00" fill="#0058ad">r 64 [0 4 17 29 40 46]</text>
<polyline fill="none" stroke="#0058ad" points="830,-0.5 830,-29.5 "/>
<text text-anchor="middle" x="910" y="-11.3" font-family="Times,serif" font-size="14.00" fill="#0058ad">r 10 [0 20 21 23 39]</text>
<polyline fill="none" stroke="#0058ad" points="990,-0.5 990,-29.5 "/>
<text text-anchor="middle" x="1040.5" y="-11.3" font-family="Times,serif" font-size="14.00" fill="#0058ad">r 56 [11 47]</text>
<polyline fill="none" stroke="#0058ad" points="1091,-0.5 1091,-29.5 "/>
<text text-anchor="middle" x="1130.5" y="-11.3" font-family="Times,serif" font-size="14.00" fill="#0058ad">r 47 [42]</text>
<polyline fill="none" stroke="#0058ad" points="1170,-0.5 1170,-29.5 "/>
<text text-anchor="middle" x="1283.5" y="-11.3" font-family="Times,serif" font-size="14.00" fill="#0058ad">r 40 [8 10 11 12 29 32 35 36]</text>
<polyline fill="none" stroke="#0058ad" points="1397,-0.5 1397,-29.5 "/>
<text text-anchor="middle" x="1447.5" y="-11.3" font-family="Times,serif" font-size="14.00" fill="#0058ad">r 54 [20 30]</text>
</g>
<!-- T187&#45;&gt;T189 -->
<g id="edge1" class="edge">
<title>T187:f2-&gt;T189:f6</title>
<path fill="none" stroke="#c000a5" d="M540,-81C540,21.83 666.73,-58.74 769,-48 782.36,-46.6 985.89,-45.44 1031.83,-34.63"/>
<polygon fill="#c000a5" stroke="#c000a5" points="1033.65,-37.63 1041,-30 1030.5,-31.39 1033.65,-37.63"/>
<text text-anchor="middle" x="781" y="-51.8" font-family="Times,serif" font-size="14.00" fill="#c000a5">:wr</text>
</g>
<!-- T189&#45;&gt;T187 -->
<g id="edge2" class="edge">
<title>T189:f2-&gt;T187:f7</title>
<path fill="none" stroke="#5b00c0" d="M390,-30C390,-52.41 770.97,-43.88 793,-48 834.47,-55.75 882.39,-38.35 889.97,-71"/>
<polygon fill="#5b00c0" stroke="#5b00c0" points="886.49,-71.41 891,-81 893.45,-70.69 886.49,-71.41"/>
<text text-anchor="middle" x="899" y="-51.8" font-family="Times,serif" font-size="14.00" fill="#5b00c0">:rw</text>
</g>
</g>
</svg>